<mxfile host="app.diagrams.net" agent="Mozilla/5.0 (Windows NT 10.0; Win64; x64) AppleWebKit/537.36 (KHTML, like Gecko) Chrome/130.0.0.0 Safari/537.36" version="24.8.3">
  <diagram id="C5RBs43oDa-KdzZeNtuy" name="Page-1">
    <mxGraphModel dx="880" dy="478" grid="1" gridSize="10" guides="1" tooltips="1" connect="1" arrows="1" fold="1" page="1" pageScale="1" pageWidth="827" pageHeight="1169" math="0" shadow="0">
      <root>
        <mxCell id="WIyWlLk6GJQsqaUBKTNV-0" />
        <mxCell id="WIyWlLk6GJQsqaUBKTNV-1" parent="WIyWlLk6GJQsqaUBKTNV-0" />
        <mxCell id="AUlWfMTpm140idI0EFFj-0" value="Mulai Program" style="rounded=1;arcSize=40;strokeWidth=2" vertex="1" parent="WIyWlLk6GJQsqaUBKTNV-1">
          <mxGeometry x="502" y="20" width="129" height="52" as="geometry" />
        </mxCell>
        <mxCell id="AUlWfMTpm140idI0EFFj-1" value="Inisialisasi DHT22 dan Serial Monitor" style="rounded=1;arcSize=40;strokeWidth=2" vertex="1" parent="WIyWlLk6GJQsqaUBKTNV-1">
          <mxGeometry x="454" y="122" width="225" height="70" as="geometry" />
        </mxCell>
        <mxCell id="AUlWfMTpm140idI0EFFj-2" value="Hubungkan ke WiFi" style="rounded=1;arcSize=40;strokeWidth=2" vertex="1" parent="WIyWlLk6GJQsqaUBKTNV-1">
          <mxGeometry x="484" y="242" width="165" height="52" as="geometry" />
        </mxCell>
        <mxCell id="AUlWfMTpm140idI0EFFj-3" value="WiFi Terhubung" style="rounded=1;arcSize=40;strokeWidth=2" vertex="1" parent="WIyWlLk6GJQsqaUBKTNV-1">
          <mxGeometry x="377" y="370" width="140" height="52" as="geometry" />
        </mxCell>
        <mxCell id="AUlWfMTpm140idI0EFFj-4" value="Loop Utama" style="rhombus;strokeWidth=2;whiteSpace=wrap;" vertex="1" parent="WIyWlLk6GJQsqaUBKTNV-1">
          <mxGeometry x="378" y="498" width="137" height="137" as="geometry" />
        </mxCell>
        <mxCell id="AUlWfMTpm140idI0EFFj-5" value="Membaca Nilai PWM dari Potensiometer" style="rounded=1;arcSize=40;strokeWidth=2" vertex="1" parent="WIyWlLk6GJQsqaUBKTNV-1">
          <mxGeometry x="20" y="685" width="206" height="70" as="geometry" />
        </mxCell>
        <mxCell id="AUlWfMTpm140idI0EFFj-6" value="Membaca Suhu dan Kelembapan dari DHT22" style="rounded=1;arcSize=40;strokeWidth=2" vertex="1" parent="WIyWlLk6GJQsqaUBKTNV-1">
          <mxGeometry x="276" y="685" width="199" height="70" as="geometry" />
        </mxCell>
        <mxCell id="AUlWfMTpm140idI0EFFj-7" value="Tampilkan Data di Serial Monitor" style="rounded=1;arcSize=40;strokeWidth=2" vertex="1" parent="WIyWlLk6GJQsqaUBKTNV-1">
          <mxGeometry x="217" y="830" width="201" height="70" as="geometry" />
        </mxCell>
        <mxCell id="AUlWfMTpm140idI0EFFj-8" value="Tampilkan Gagal Membaca Data" style="rounded=1;arcSize=40;strokeWidth=2" vertex="1" parent="WIyWlLk6GJQsqaUBKTNV-1">
          <mxGeometry x="468" y="830" width="215" height="70" as="geometry" />
        </mxCell>
        <mxCell id="AUlWfMTpm140idI0EFFj-9" value="Mengirim Data ke ThingSpeak" style="rounded=1;arcSize=40;strokeWidth=2" vertex="1" parent="WIyWlLk6GJQsqaUBKTNV-1">
          <mxGeometry x="241" y="950" width="154" height="70" as="geometry" />
        </mxCell>
        <mxCell id="AUlWfMTpm140idI0EFFj-10" value="Data Berhasil Dikirim" style="rounded=1;arcSize=40;strokeWidth=2" vertex="1" parent="WIyWlLk6GJQsqaUBKTNV-1">
          <mxGeometry x="114" y="1095" width="180" height="52" as="geometry" />
        </mxCell>
        <mxCell id="AUlWfMTpm140idI0EFFj-11" value="Gagal Mengirim Data" style="rounded=1;arcSize=40;strokeWidth=2" vertex="1" parent="WIyWlLk6GJQsqaUBKTNV-1">
          <mxGeometry x="369" y="1095" width="176" height="52" as="geometry" />
        </mxCell>
        <mxCell id="AUlWfMTpm140idI0EFFj-12" value="Tunggu 5 Detik" style="rounded=1;arcSize=40;strokeWidth=2" vertex="1" parent="WIyWlLk6GJQsqaUBKTNV-1">
          <mxGeometry x="400" y="1197" width="133" height="52" as="geometry" />
        </mxCell>
        <mxCell id="AUlWfMTpm140idI0EFFj-13" value="" style="whiteSpace=wrap;strokeWidth=2;" vertex="1" parent="WIyWlLk6GJQsqaUBKTNV-1">
          <mxGeometry x="567" y="396" as="geometry" />
        </mxCell>
        <mxCell id="AUlWfMTpm140idI0EFFj-14" value="" style="whiteSpace=wrap;strokeWidth=2;" vertex="1" parent="WIyWlLk6GJQsqaUBKTNV-1">
          <mxGeometry x="588" y="566" as="geometry" />
        </mxCell>
        <mxCell id="AUlWfMTpm140idI0EFFj-15" value="" style="curved=1;startArrow=none;endArrow=block;exitX=0.5;exitY=1;entryX=0.5;entryY=0;rounded=0;" edge="1" parent="WIyWlLk6GJQsqaUBKTNV-1" source="AUlWfMTpm140idI0EFFj-0" target="AUlWfMTpm140idI0EFFj-1">
          <mxGeometry relative="1" as="geometry">
            <Array as="points" />
          </mxGeometry>
        </mxCell>
        <mxCell id="AUlWfMTpm140idI0EFFj-16" value="" style="curved=1;startArrow=none;endArrow=block;exitX=0.5;exitY=0.99;entryX=0.5;entryY=-0.01;rounded=0;" edge="1" parent="WIyWlLk6GJQsqaUBKTNV-1" source="AUlWfMTpm140idI0EFFj-1" target="AUlWfMTpm140idI0EFFj-2">
          <mxGeometry relative="1" as="geometry">
            <Array as="points" />
          </mxGeometry>
        </mxCell>
        <mxCell id="AUlWfMTpm140idI0EFFj-17" value="Berhasil" style="curved=1;startArrow=none;endArrow=block;exitX=0.21;exitY=0.99;entryX=0.5;entryY=-0.01;rounded=0;" edge="1" parent="WIyWlLk6GJQsqaUBKTNV-1" source="AUlWfMTpm140idI0EFFj-2" target="AUlWfMTpm140idI0EFFj-3">
          <mxGeometry relative="1" as="geometry">
            <Array as="points">
              <mxPoint x="447" y="332" />
            </Array>
          </mxGeometry>
        </mxCell>
        <mxCell id="AUlWfMTpm140idI0EFFj-18" value="" style="curved=1;startArrow=none;endArrow=none;exitX=0.5;exitY=0.99;entryX=-Infinity;entryY=-Infinity;rounded=0;" edge="1" parent="WIyWlLk6GJQsqaUBKTNV-1" source="AUlWfMTpm140idI0EFFj-2" target="AUlWfMTpm140idI0EFFj-13">
          <mxGeometry relative="1" as="geometry">
            <Array as="points" />
          </mxGeometry>
        </mxCell>
        <mxCell id="AUlWfMTpm140idI0EFFj-19" value="Gagal" style="curved=1;startArrow=none;endArrow=none;exitX=-Infinity;exitY=-Infinity;entryX=-Infinity;entryY=Infinity;rounded=0;" edge="1" parent="WIyWlLk6GJQsqaUBKTNV-1" source="AUlWfMTpm140idI0EFFj-13" target="AUlWfMTpm140idI0EFFj-14">
          <mxGeometry relative="1" as="geometry">
            <Array as="points">
              <mxPoint x="567" y="460" />
            </Array>
          </mxGeometry>
        </mxCell>
        <mxCell id="AUlWfMTpm140idI0EFFj-20" value="" style="curved=1;startArrow=none;endArrow=block;exitX=-Infinity;exitY=Infinity;entryX=0.6;entryY=0.99;rounded=0;" edge="1" parent="WIyWlLk6GJQsqaUBKTNV-1" source="AUlWfMTpm140idI0EFFj-14" target="AUlWfMTpm140idI0EFFj-2">
          <mxGeometry relative="1" as="geometry">
            <Array as="points">
              <mxPoint x="608" y="460" />
              <mxPoint x="608" y="332" />
            </Array>
          </mxGeometry>
        </mxCell>
        <mxCell id="AUlWfMTpm140idI0EFFj-21" value="" style="curved=1;startArrow=none;endArrow=block;exitX=0.5;exitY=0.99;entryX=0.5;entryY=0;rounded=0;" edge="1" parent="WIyWlLk6GJQsqaUBKTNV-1" source="AUlWfMTpm140idI0EFFj-3" target="AUlWfMTpm140idI0EFFj-4">
          <mxGeometry relative="1" as="geometry">
            <Array as="points" />
          </mxGeometry>
        </mxCell>
        <mxCell id="AUlWfMTpm140idI0EFFj-22" value="" style="curved=1;startArrow=none;endArrow=block;exitX=0;exitY=0.64;entryX=0.5;entryY=-0.01;rounded=0;" edge="1" parent="WIyWlLk6GJQsqaUBKTNV-1" source="AUlWfMTpm140idI0EFFj-4" target="AUlWfMTpm140idI0EFFj-5">
          <mxGeometry relative="1" as="geometry">
            <Array as="points">
              <mxPoint x="123" y="660" />
            </Array>
          </mxGeometry>
        </mxCell>
        <mxCell id="AUlWfMTpm140idI0EFFj-23" value="" style="curved=1;startArrow=none;endArrow=block;exitX=0.12;exitY=1;entryX=0.5;entryY=-0.01;rounded=0;" edge="1" parent="WIyWlLk6GJQsqaUBKTNV-1" source="AUlWfMTpm140idI0EFFj-4" target="AUlWfMTpm140idI0EFFj-6">
          <mxGeometry relative="1" as="geometry">
            <Array as="points">
              <mxPoint x="376" y="660" />
            </Array>
          </mxGeometry>
        </mxCell>
        <mxCell id="AUlWfMTpm140idI0EFFj-24" value="Valid" style="curved=1;startArrow=none;endArrow=block;exitX=0.36;exitY=0.99;entryX=0.5;entryY=0;rounded=0;" edge="1" parent="WIyWlLk6GJQsqaUBKTNV-1" source="AUlWfMTpm140idI0EFFj-6" target="AUlWfMTpm140idI0EFFj-7">
          <mxGeometry relative="1" as="geometry">
            <Array as="points">
              <mxPoint x="318" y="792" />
            </Array>
          </mxGeometry>
        </mxCell>
        <mxCell id="AUlWfMTpm140idI0EFFj-25" value="Tidak Valid" style="curved=1;startArrow=none;endArrow=block;exitX=0.98;exitY=0.99;entryX=0.5;entryY=0;rounded=0;" edge="1" parent="WIyWlLk6GJQsqaUBKTNV-1" source="AUlWfMTpm140idI0EFFj-6" target="AUlWfMTpm140idI0EFFj-8">
          <mxGeometry relative="1" as="geometry">
            <Array as="points">
              <mxPoint x="576" y="792" />
            </Array>
          </mxGeometry>
        </mxCell>
        <mxCell id="AUlWfMTpm140idI0EFFj-26" value="" style="curved=1;startArrow=none;endArrow=block;exitX=0.5;exitY=1;entryX=0.5;entryY=0;rounded=0;" edge="1" parent="WIyWlLk6GJQsqaUBKTNV-1" source="AUlWfMTpm140idI0EFFj-7" target="AUlWfMTpm140idI0EFFj-9">
          <mxGeometry relative="1" as="geometry">
            <Array as="points" />
          </mxGeometry>
        </mxCell>
        <mxCell id="AUlWfMTpm140idI0EFFj-27" value="Berhasil" style="curved=1;startArrow=none;endArrow=block;exitX=0.14;exitY=0.99;entryX=0.5;entryY=0.01;rounded=0;" edge="1" parent="WIyWlLk6GJQsqaUBKTNV-1" source="AUlWfMTpm140idI0EFFj-9" target="AUlWfMTpm140idI0EFFj-10">
          <mxGeometry relative="1" as="geometry">
            <Array as="points">
              <mxPoint x="204" y="1057" />
            </Array>
          </mxGeometry>
        </mxCell>
        <mxCell id="AUlWfMTpm140idI0EFFj-28" value="Gagal" style="curved=1;startArrow=none;endArrow=block;exitX=0.93;exitY=0.99;entryX=0.5;entryY=0.01;rounded=0;" edge="1" parent="WIyWlLk6GJQsqaUBKTNV-1" source="AUlWfMTpm140idI0EFFj-9" target="AUlWfMTpm140idI0EFFj-11">
          <mxGeometry relative="1" as="geometry">
            <Array as="points">
              <mxPoint x="457" y="1057" />
            </Array>
          </mxGeometry>
        </mxCell>
        <mxCell id="AUlWfMTpm140idI0EFFj-29" value="" style="curved=1;startArrow=none;endArrow=block;exitX=0.5;exitY=1.01;entryX=0;entryY=0.26;rounded=0;" edge="1" parent="WIyWlLk6GJQsqaUBKTNV-1" source="AUlWfMTpm140idI0EFFj-10" target="AUlWfMTpm140idI0EFFj-12">
          <mxGeometry relative="1" as="geometry">
            <Array as="points">
              <mxPoint x="204" y="1172" />
            </Array>
          </mxGeometry>
        </mxCell>
        <mxCell id="AUlWfMTpm140idI0EFFj-30" value="" style="curved=1;startArrow=none;endArrow=block;exitX=0.5;exitY=1.01;entryX=0.46;entryY=0.01;rounded=0;" edge="1" parent="WIyWlLk6GJQsqaUBKTNV-1" source="AUlWfMTpm140idI0EFFj-11" target="AUlWfMTpm140idI0EFFj-12">
          <mxGeometry relative="1" as="geometry">
            <Array as="points">
              <mxPoint x="457" y="1172" />
            </Array>
          </mxGeometry>
        </mxCell>
        <mxCell id="AUlWfMTpm140idI0EFFj-31" value="" style="curved=1;startArrow=none;endArrow=block;exitX=1;exitY=0.25;entryX=1;entryY=0.67;rounded=0;" edge="1" parent="WIyWlLk6GJQsqaUBKTNV-1" source="AUlWfMTpm140idI0EFFj-12" target="AUlWfMTpm140idI0EFFj-4">
          <mxGeometry relative="1" as="geometry">
            <Array as="points">
              <mxPoint x="718" y="1172" />
              <mxPoint x="718" y="660" />
            </Array>
          </mxGeometry>
        </mxCell>
      </root>
    </mxGraphModel>
  </diagram>
</mxfile>
